# xmcd CD database file
#
# Track frame offsets:
#	150
#	15578
#	30846
#	46028
#	60343
#	75008
#	90635
#	106298
#	121631
#	142472
#	161863
#	176453
#	190810
#	206249
#	218594
#	232886
#	245185
#	257313
#	270456
#	283268
#	295447
#	307756
#	320074
#	335132
#
# Disc length: 4653 seconds
#
# Revision: 0
# Processed by: cddbd v1.5.2PL0 Copyright (c) Steve Scherf et al.
# Submitted via: CDex 1.70beta1
#
DISCID=4d122b18
DTITLE=Metronome All Stars - The Classic Recordings 1939 - 1953
DYEAR=1900
DGENRE=Jazz
TTITLE0=Blue Lou
TTITLE1=The Blues
TTITLE2=King Porter Stomp
TTITLE3=All Star Strut
TTITLE4=Bugle Call Rag
TTITLE5=One O'Clock Jump
TTITLE6=Royal Flush
TTITLE7=I Got Rythem
TTITLE8=Look Out
TTITLE9=Metronome All Out
TTITLE10=Sweet Lorraine
TTITLE11=Nat Meets June
TTITLE12=Leap Here
TTITLE13=Metronome Riff
TTITLE14=Overtime
TTITLE15=Victory Ball
TTITLE16=Double Date
TTITLE17=No Figs
TTITLE18=Early Spring
TTITLE19=Local 802 Blues
TTITLE20=How High The Moon (1)
TTITLE21=How High The Moon (2)
TTITLE22=St Lois Blues (1)
TTITLE23=St Louis Blues (2)
EXTD=
EXTT0=
EXTT1=
EXTT2=
EXTT3=
EXTT4=
EXTT5=
EXTT6=
EXTT7=
EXTT8=
EXTT9=
EXTT10=
EXTT11=
EXTT12=
EXTT13=
EXTT14=
EXTT15=
EXTT16=
EXTT17=
EXTT18=
EXTT19=
EXTT20=
EXTT21=
EXTT22=
EXTT23=
PLAYORDER=
